<?xml version="1.0" standalone="no"?><!DOCTYPE svg PUBLIC "-//W3C//DTD SVG 1.1//EN" "http://www.w3.org/Graphics/SVG/1.1/DTD/svg11.dtd"><svg t="1679585777204" class="icon" viewBox="0 0 1024 1024" version="1.1" xmlns="http://www.w3.org/2000/svg" p-id="2557" width="128" height="128" xmlns:xlink="http://www.w3.org/1999/xlink"><path d="M735.99958 543.99898c53.1199 0 95.99982 42.87992 95.99982 95.99982s-42.87992 95.99982-95.99982 95.99982-95.99982-42.87992-95.99982-95.99982 42.87992-95.99982 95.99982-95.99982z m15.99997 95.99982c0-8.959983-7.039987-15.99997-15.99997-15.99997s-15.99997 7.039987-15.99997 15.99997 7.039987 15.99997 15.99997 15.99997 15.99997-7.039987 15.99997-15.99997z" fill="#1296db" p-id="2558"></path><path d="M735.99958 511.99904c-70.591868 0-127.99976 57.407892-127.99976 127.99976 0 59.455889 40.959923 109.119795 95.99982 123.455769V799.9985c0 88.223835-71.775865 159.9997-159.9997 159.9997-42.87992 0-83.039844-16.639969-113.151788-47.039912A157.727704 157.727704 0 0 1 384.00024 799.9985v-136.895743c12.383977-7.231986 22.175958-18.335966 27.455949-31.839941a217.407592 217.407592 0 0 0 98.751814-56.831893A221.439585 221.439585 0 0 0 575.99988 415.99922V63.99988a31.99994 31.99994 0 0 0-31.99994-31.99994h-72.895863C460.000097 12.959976 439.584136 0 416.00018 0c-35.295934 0-63.99988 28.703946-63.99988 63.99988s28.703946 63.99988 63.99988 63.99988c23.583956 0 43.999918-12.959976 55.103897-31.99994H512v319.9994c0 42.87992-16.639969 83.039844-47.039912 113.183788a154.62371 154.62371 0 0 1-63.359881 38.783927A63.83988 63.83988 0 0 0 352.0003 543.99898c-19.743963 0-37.50393 9.279983-49.279908 23.679956A158.783702 158.783702 0 0 1 192.0006 415.99922V95.99982h40.895923c11.103979 19.039964 31.519941 31.99994 55.103897 31.99994 35.295934 0 63.99988-28.703946 63.99988-63.99988s-28.703946-63.99988-63.99988-63.99988c-23.583956 0-43.999918 12.959976-55.103897 31.99994H160.00066a31.99994 31.99994 0 0 0-31.99994 31.99994v351.99934a222.719582 222.719582 0 0 0 164.703691 215.807595c5.34399 13.247975 15.039972 24.159955 27.295949 31.295942V799.9985c0 60.095887 23.359956 116.383782 65.599877 158.207703A221.279585 221.279585 0 0 0 543.99994 1023.99808c123.519768 0 223.99958-100.479812 223.99958-223.99958v-36.543931c55.039897-14.303973 95.99982-63.99988 95.99982-123.455769 0-70.591868-57.407892-127.99976-127.99976-127.99976zM416.00018 95.99982l-0.096-31.96794L416.00018 63.99988v31.99994zM288.00042 63.99988v31.99994l-0.096-31.551941C287.90442 64.319879 288.00042 64.15988 288.00042 63.99988z m447.99916 639.9988c-35.295934 0-63.99988-28.703946-63.99988-63.99988s28.703946-63.99988 63.99988-63.99988 63.99988 28.703946 63.99988 63.99988-28.703946 63.99988-63.99988 63.99988z" fill="#1296db" p-id="2559"></path><path d="M735.99958 607.99886c-17.919966 0-31.99994 14.079974-31.99994 31.99994s14.079974 31.99994 31.99994 31.99994 31.99994-14.079974 31.99994-31.99994-14.079974-31.99994-31.99994-31.99994z" fill="#1296db" p-id="2560"></path></svg>