<?xml version="1.0" standalone="no"?><!DOCTYPE svg PUBLIC "-//W3C//DTD SVG 1.1//EN" "http://www.w3.org/Graphics/SVG/1.1/DTD/svg11.dtd"><svg t="1679586057392" class="icon" viewBox="0 0 1024 1024" version="1.1" xmlns="http://www.w3.org/2000/svg" p-id="5320" xmlns:xlink="http://www.w3.org/1999/xlink" width="128" height="128"><path d="M370.5 212.7c0-22.8 18.5-41.3 41.3-41.3h201.5c22.8 0 41.3 18.5 41.3 41.3v60.7h70.5v-60.7c0-29.9-11.6-57.9-32.7-79.1-21.1-21.1-49.2-32.8-79.1-32.8H411.8c-29.8 0-57.9 11.6-79 32.7S300 182.7 300 212.6v60.7h70.5v-60.6zM569.4 452.9H447.8v102.2h-96.7v121.5h102.1v102.1h121.5V676.6h102.2V555.1H569.4z" fill="#3a90bd" p-id="5321"></path><path d="M926.8 411.1c-3-59.9-53.1-108.6-111.8-108.6H210.3c-61.6 0-111.8 50.1-111.8 111.8v403.1c0 60.2 50.2 109.1 111.8 109.1H815c29.8 0 57.9-11.6 79-32.7s32.8-49.2 32.8-79.1V411.1z m-70.5 406.2c0 22.8-18.5 41.3-41.3 41.3H210.3c-22.8 0-41.3-18.5-41.3-41.3v-403c0-22.8 18.5-41.3 41.3-41.3H815c22.8 0 41.3 18.5 41.3 41.3v403z" fill="#3a90bd" p-id="5322"></path></svg>